<?xml version="1.0" encoding="utf-8"?>
<!-- Generator: Adobe Illustrator 21.0.0, SVG Export Plug-In . SVG Version: 6.00 Build 0)  -->
<svg version="1.1" id="Laag_1" xmlns="http://www.w3.org/2000/svg" xmlns:xlink="http://www.w3.org/1999/xlink" x="0px" y="0px"
	 viewBox="0 0 100 125" style="enable-background:new 0 0 100 125;" xml:space="preserve">
<style type="text/css">
	.st0{fill:#00D66C;}
</style>
<title>Gear 2.4</title>
<desc>Created with Sketch.</desc>
<g>
	<g>
		<path class="st0" d="M46.3,73.8c-0.5,1.6-2.3,2.4-3.8,1.9L41,75.2c-1.6-0.5-2.5-2.2-2-3.8l0.2-0.6c0.4-1.3-0.2-3-1.3-3.9l-0.3-0.2
			c-1.1-0.8-2.9-0.8-4.1,0L33,67.1c-1.4,1-3.2,0.6-4.2-0.7l-0.9-1.3c-1-1.3-0.7-3.2,0.6-4.2l0.5-0.4c1.1-0.8,1.7-2.6,1.2-3.9
			l-0.1-0.4c-0.4-1.3-1.9-2.4-3.3-2.4l-0.6,0c-1.7,0-3-1.4-3-3v-1.6c0-1.7,1.4-3,3-3l0.6,0c1.4,0,2.8-1.1,3.3-2.4l0.1-0.4
			c0.4-1.3-0.1-3-1.2-3.9l-0.5-0.4c-1.3-1-1.6-2.9-0.6-4.2l0.9-1.3c1-1.3,2.9-1.6,4.2-0.7l0.5,0.3c1.1,0.8,2.9,0.8,4.1,0l0.3-0.2
			c1.1-0.8,1.7-2.5,1.3-3.9L39,28.6c-0.5-1.6,0.4-3.3,2-3.8l1.5-0.5c1.6-0.5,3.3,0.3,3.8,1.9l0.2,0.6c0.4,1.3,1.9,2.4,3.3,2.4h0.4
			c1.4,0,2.9-1.1,3.3-2.4l0.2-0.6c0.5-1.6,2.3-2.4,3.8-1.9l1.5,0.5c1.6,0.5,2.5,2.2,2,3.8l-0.2,0.6c-0.4,1.3,0.2,3,1.3,3.9l0.3,0.2
			c1.1,0.8,2.9,0.8,4.1,0l0.5-0.3c1.4-1,3.2-0.6,4.2,0.7l0.9,1.3c1,1.3,0.7,3.2-0.6,4.2L71,39.5c-1.1,0.8-1.7,2.6-1.2,3.9l0.1,0.4
			c0.4,1.3,1.9,2.4,3.3,2.4l0.6,0c1.7,0,3,1.4,3,3v1.6c0,1.7-1.4,3-3,3l-0.6,0c-1.4,0-2.8,1.1-3.3,2.4l-0.1,0.4
			c-0.4,1.3,0.1,3,1.2,3.9l0.5,0.4c1.3,1,1.6,2.9,0.6,4.2l-0.9,1.3c-1,1.3-2.9,1.6-4.2,0.7l-0.5-0.3c-1.1-0.8-2.9-0.8-4.1,0L62.1,67
			c-1.1,0.8-1.7,2.5-1.3,3.9l0.2,0.6c0.5,1.6-0.4,3.3-2,3.8l-1.5,0.5c-1.6,0.5-3.3-0.3-3.8-1.9l-0.2-0.6c-0.4-1.3-1.9-2.4-3.3-2.4
			h-0.4c-1.4,0-2.9,1.1-3.3,2.4L46.3,73.8z M50,63c7.2,0,13-5.8,13-13s-5.8-13-13-13s-13,5.8-13,13S42.8,63,50,63z"/>
	</g>
</g>
</svg>
