<?xml version="1.0" encoding="utf-8"?>
<!-- Generator: Adobe Illustrator 21.0.0, SVG Export Plug-In . SVG Version: 6.00 Build 0)  -->
<svg version="1.1" id="Laag_1" xmlns="http://www.w3.org/2000/svg" xmlns:xlink="http://www.w3.org/1999/xlink" x="0px" y="0px"
	 viewBox="0 0 197 35" style="enable-background:new 0 0 197 35;" xml:space="preserve">
<style type="text/css">
	.st0{fill:#00D66C;}
	.st1{fill:#FFFFFF;}
	.st2{fill:none;}
	.st3{font-family:'NexaBold';}
	.st4{font-size:22px;}
</style>
<g>
	<path class="st0" d="M34.4,17.5c0-8.9-7-16-15.9-16s-16,7.1-16,16s7,16,15.9,16S34.4,26.4,34.4,17.5L34.4,17.5L34.4,17.5z"/>
	<path class="st1" d="M25.5,19.8h-0.9c-0.9,0-1.3,0.5-1.4,1.4C23,22.9,21.6,24,19.9,24c-2,0-3.4-1.5-3.4-3.7v-5.1
		c0-0.2,0-0.4-0.1-0.5c0.2,0.1,0.4,0.1,0.7,0.1h4.7c0.9,0,1.4-0.5,1.4-1.4V13c0-0.9-0.5-1.4-1.4-1.4h-2.7V8.7c0-0.9-0.5-1.4-1.4-1.4
		h-0.6c-0.9,0-1.4,0.5-1.4,1.4v4.7c0,0.2,0,0.4,0.1,0.5c-0.2-0.1-0.5-0.1-0.7-0.1h-4.7c-0.9,0-1.4,0.5-1.4,1.4v0.4
		c0,0.9,0.5,1.4,1.4,1.4H13v3.3c0,4.1,2.7,7,6.8,7c3.9,0,6.4-2.5,6.9-6.2C26.9,20.3,26.3,19.8,25.5,19.8L25.5,19.8z"/>
</g>
<rect x="55.4" y="8.7" class="st2" width="141.6" height="17.3"/>
<text transform="matrix(1 0 0 1 50.8328 22.8483)" class="st0 st3 st4">99 verhalen</text>
</svg>
