<?xml version="1.0" encoding="utf-8"?>
<!-- Generator: Adobe Illustrator 21.0.0, SVG Export Plug-In . SVG Version: 6.00 Build 0)  -->
<svg version="1.1" id="Laag_1" xmlns="http://www.w3.org/2000/svg" xmlns:xlink="http://www.w3.org/1999/xlink" x="0px" y="0px"
	 viewBox="0 0 100 125" style="enable-background:new 0 0 100 125;" xml:space="preserve">
<title>Artboard 7</title>
<path d="M95.1,4.8c5,5,5,13.2,0,18.2c-0.2,0.2-0.3,0.3-0.5,0.5L76.9,39.4l6,39.5c0.5,3.3-0.6,6.7-3,9.1l-6.6,6.6
	c-0.9,0.9-2.3,0.9-3.1,0c-0.2-0.2-0.3-0.4-0.4-0.6L53.2,60.6L41,71.5l1.7,15.7c0.3,3-0.7,6-2.9,8.1l-3.1,3.1c-0.9,0.9-2.3,0.9-3.1,0
	c-0.2-0.2-0.3-0.4-0.4-0.6l-9.7-21.1L2.4,67c-1.1-0.5-1.6-1.8-1.1-2.9c0.1-0.2,0.3-0.5,0.4-0.6l3.1-3.1c2.1-2.1,5.1-3.2,8.1-2.9
	l15.3,1.6l11.1-12.4L6,30.2c-1.1-0.5-1.5-1.9-1-3c0.1-0.2,0.2-0.4,0.4-0.6L12,20c2.4-2.4,5.7-3.5,9-3l39.5,6L76.4,5.3
	c4.7-5.3,12.9-5.8,18.2-1C94.8,4.4,95,4.6,95.1,4.8z"/>
</svg>
